<svg width="65" height="630" viewBox="0 0 65 630" fill="none" xmlns="http://www.w3.org/2000/svg">
<path d="M40.6444 21.7241H24.3555V596.775H40.6444V21.7241Z" fill="#D4A976"/>
<path d="M24.3557 34.5033C23.5413 26.8359 23.2072 22.3554 18.2473 15.9738C13.4529 9.80513 0.814675 3.51439 0.814675 3.51439V0.000186533H65V3.51439C65 3.51439 51.7322 9.67554 46.7531 15.9738C41.7315 22.3256 41.0519 26.8359 40.6447 34.5033C40.526 36.7376 40.6447 40.5732 40.6447 40.5732H24.3557C24.3557 40.5732 24.3557 37.059 24.3557 34.5033Z" fill="#D4A976"/>
<path d="M40.7431 587.618C41.5596 597.036 41.8945 602.54 46.8664 610.379C51.6724 617.956 64.3414 625.683 64.3414 625.683V630H0V625.683C0 625.683 13.3 618.115 18.2913 610.379C23.3251 602.576 24.0063 597.036 24.4146 587.618C24.5335 584.874 24.4146 580.162 24.4146 580.162H40.7431C40.7431 580.162 40.7431 584.479 40.7431 587.618Z" fill="#D4A976"/>
</svg>
