<svg width="23" height="25" viewBox="0 0 23 25" fill="none" xmlns="http://www.w3.org/2000/svg">
<path d="M8.47363 0H14.5263C14.5263 0 13.2293 3.125 13.2293 12.5C13.2293 21.875 14.5263 25 14.5263 25H8.47363C8.47363 25 9.77063 21.5625 9.77063 12.5C9.77063 3.4375 8.47363 0 8.47363 0Z" fill="#21201D"/>
<path d="M0 15.79L-2.64569e-07 9.21109C-2.64569e-07 9.21109 2.875 10.6209 11.5 10.6209C20.125 10.6209 23 9.21109 23 9.21109L23 15.79C23 15.79 19.8375 14.3803 11.5 14.3803C3.1625 14.3803 0 15.79 0 15.79Z" fill="#21201D"/>
</svg>
