<svg width="25" height="25" viewBox="0 0 25 25" fill="none" xmlns="http://www.w3.org/2000/svg">
<path d="M9.21045 0H15.7894C15.7894 0 14.3796 3.125 14.3796 12.5C14.3796 21.875 15.7894 25 15.7894 25H9.21045C9.21045 25 10.6202 21.5625 10.6202 12.5C10.6202 3.4375 9.21045 0 9.21045 0Z" fill="#21201D"/>
<path d="M0 15.79L-2.87575e-07 9.21109C-2.87575e-07 9.21109 3.125 10.6209 12.5 10.6209C21.875 10.6209 25 9.21109 25 9.21109L25 15.79C25 15.79 21.5625 14.3803 12.5 14.3803C3.4375 14.3803 0 15.79 0 15.79Z" fill="#21201D"/>
</svg>
